<svg width="128" height="128" viewBox="0 0 128 128" fill="none" xmlns="http://www.w3.org/2000/svg">
<rect width="128" height="128" rx="64" fill="#5034C5"/>
<g filter="url(#filter0_d_6_31)">
<rect x="19" y="19" width="90" height="90" rx="45" fill="white"/>
</g>
<path d="M111 65C111 67.76 113.24 70 116 70C118.76 70 121 67.76 121 65C121 62.24 118.76 60 116 60C113.24 60 111 62.24 111 65ZM116.515 63.235L118.015 64.735C118.09 64.81 118.125 64.905 118.125 65C118.125 65.095 118.09 65.19 118.015 65.265L116.515 66.765C116.37 66.91 116.13 66.91 115.985 66.765C115.84 66.62 115.84 66.38 115.985 66.235L116.845 65.375L114.25 65.375C114.045 65.375 113.875 65.205 113.875 65C113.875 64.795 114.045 64.625 114.25 64.625L116.845 64.625L115.985 63.765C115.84 63.62 115.84 63.38 115.985 63.235C116.13 63.09 116.37 63.09 116.515 63.235Z" fill="white"/>
<path d="M15 65C15 62.24 12.76 60 10 60C7.24 60 5 62.24 5 65C5 67.76 7.24 70 10 70C12.76 70 15 67.76 15 65ZM9.485 66.765L7.985 65.265C7.91 65.19 7.875 65.095 7.875 65C7.875 64.905 7.91 64.81 7.985 64.735L9.485 63.235C9.63 63.09 9.87 63.09 10.015 63.235C10.16 63.38 10.16 63.62 10.015 63.765L9.155 64.625L11.75 64.625C11.955 64.625 12.125 64.795 12.125 65C12.125 65.205 11.955 65.375 11.75 65.375L9.155 65.375L10.015 66.235C10.16 66.38 10.16 66.62 10.015 66.765C9.87 66.91 9.63 66.91 9.485 66.765Z" fill="white"/>
<path d="M46 86C44.625 86 43.4483 85.5108 42.47 84.5325C41.4917 83.5542 41.0017 82.3767 41 81V46C41 44.625 41.49 43.4483 42.47 42.47C43.45 41.4917 44.6267 41.0017 46 41H81C82.375 41 83.5525 41.49 84.5325 42.47C85.5125 43.45 86.0017 44.6267 86 46V81C86 82.375 85.5108 83.5525 84.5325 84.5325C83.5542 85.5125 82.3767 86.0017 81 86H46ZM58.5 76H68.5C69.875 76 71.0525 75.5108 72.0325 74.5325C73.0125 73.5542 73.5017 72.3767 73.5 71V61H63.5V66H68.5V71H58.5V56H73.5C73.5 54.625 73.0108 53.4483 72.0325 52.47C71.0542 51.4917 69.8767 51.0017 68.5 51H58.5C57.125 51 55.9483 51.49 54.97 52.47C53.9917 53.45 53.5017 54.6267 53.5 56V71C53.5 72.375 53.99 73.5525 54.97 74.5325C55.95 75.5125 57.1267 76.0017 58.5 76Z" fill="#5034C5"/>
<circle cx="64" cy="97" r="3" fill="#C0C0C0"/>
<circle cx="54" cy="97" r="3" fill="#C0C0C0"/>
<circle cx="74" cy="97" r="3" fill="#C0C0C0"/>
<defs>
<filter id="filter0_d_6_31" x="15" y="17" width="98" height="98" filterUnits="userSpaceOnUse" color-interpolation-filters="sRGB">
<feFlood flood-opacity="0" result="BackgroundImageFix"/>
<feColorMatrix in="SourceAlpha" type="matrix" values="0 0 0 0 0 0 0 0 0 0 0 0 0 0 0 0 0 0 127 0" result="hardAlpha"/>
<feOffset dy="2"/>
<feGaussianBlur stdDeviation="2"/>
<feComposite in2="hardAlpha" operator="out"/>
<feColorMatrix type="matrix" values="0 0 0 0 0 0 0 0 0 0 0 0 0 0 0 0 0 0 0.5 0"/>
<feBlend mode="normal" in2="BackgroundImageFix" result="effect1_dropShadow_6_31"/>
<feBlend mode="normal" in="SourceGraphic" in2="effect1_dropShadow_6_31" result="shape"/>
</filter>
</defs>
</svg>
